<svg xmlns="http://www.w3.org/2000/svg" style="display: none;">

  <symbol id="tools" viewBox="0 0 40 40">
    <path d="M27.8866 22.3761L23.6012 26.7204L35.7146 39L40 34.6558L27.8866 22.3761Z" fill="currentcolor"/>
    <path d="M31.1108 16.1289C35.0097 16.1289 38.1814 12.9137 38.1814 8.96122C38.1814 7.77344 37.8582 6.66757 37.3532 5.68458L31.8987 11.2139L28.8886 8.16254L34.3431 2.6332C33.3734 2.12123 32.2825 1.79356 31.1108 1.79356C27.2118 1.79356 24.0402 5.00877 24.0402 8.96122C24.0402 9.80086 24.2018 10.5995 24.4644 11.3368L20.7271 15.1254L17.1311 11.4801L18.5655 10.0261L15.717 7.13859L19.9998 2.79703C17.6362 0.400988 13.7978 0.400988 11.4342 2.79703L4.28278 10.0466L7.13124 12.9342H1.43433L0 14.3882L7.15144 21.6377L8.58577 20.1837V14.3882L11.4342 17.2757L12.8686 15.8217L16.4645 19.467L1.49493 34.6419L5.77772 38.9835L28.7674 15.6988C29.4947 15.965 30.2825 16.1289 31.1108 16.1289Z" fill="currentcolor"/>
  </symbol>

  <symbol id="games" viewBox="0 0 40 40">
    <path d="M9.6357 21.7442L0.333374 38.4884H18.938L9.6357 21.7442ZM35.2171 3C33.245 3 31.8497 4.04186 31.031 5.17674C30.2124 4.04186 28.8171 3 26.845 3C23.9427 3 21.7287 5.3814 21.7287 8.11628C21.7287 11.8372 26.231 14.4791 31.031 18.814C35.8311 14.4791 40.3334 11.8372 40.3334 8.11628C40.3334 5.3814 38.1194 3 35.2171 3Z" fill="currentcolor"/>
    <path d="M16.901 7.48348V4.35006H12.6727V2H7.5987V4.35006H3.37037V7.48348H0.833374V12.1836H3.37037V16.8837H16.901V12.1836H19.438V7.48348H16.901ZM6.3302 9.44186C6.3302 8.79168 6.8968 8.26683 7.5987 8.26683C8.3006 8.26683 8.8672 8.79168 8.8672 9.44186C8.8672 10.092 8.3006 10.6169 7.5987 10.6169C6.8968 10.6169 6.3302 10.092 6.3302 9.44186ZM13.5184 13.7503H6.75304V12.1836H13.5184V13.7503ZM12.6727 10.6169C11.9708 10.6169 11.4042 10.092 11.4042 9.44186C11.4042 8.79168 11.9708 8.26683 12.6727 8.26683C13.3746 8.26683 13.9412 8.79168 13.9412 9.44186C13.9412 10.092 13.3746 10.6169 12.6727 10.6169Z" fill="currentcolor"/>
    <path d="M20.7288 35.4975L23.7277 38.4884L26.7186 35.4975L29.7095 38.4884L32.7084 35.4975L29.7095 32.5067L39.2289 22.9792L39.3334 19.8838L36.238 19.9883L26.7186 29.5077L23.7197 26.5168L20.7288 29.5077L23.7277 32.5067L20.7288 35.4975Z" fill="currentcolor"/>
  </symbol>

  <symbol id="profit" viewBox="0 0 40 40">
    <path fill-rule="evenodd" clip-rule="evenodd" d="M20 36.6666C29.2048 36.6666 36.6667 29.2047 36.6667 19.9999C36.6667 10.7952 29.2048 3.33325 20 3.33325C10.7953 3.33325 3.33337 10.7952 3.33337 19.9999C3.33337 29.2047 10.7953 36.6666 20 36.6666ZM21.6667 11.7357V8.33325H18.3334V11.6666C15.5719 11.6666 13.3334 13.9052 13.3334 16.6666C13.3334 19.428 15.5719 21.6666 18.3334 21.6666H21.6667C22.5872 21.6666 23.3334 22.4128 23.3334 23.3333C23.3334 24.2537 22.5872 24.9999 21.6667 24.9999H18.3334C17.4129 24.9999 16.6667 24.2537 16.6667 23.3333H13.3334C13.3334 26.0947 15.5719 28.3333 18.3334 28.3333V31.6666H21.6667V28.3333C24.4281 28.3333 26.6667 26.0947 26.6667 23.3333C26.6667 20.5718 24.4281 18.3333 21.6667 18.3333H18.3334C17.4129 18.3333 16.6667 17.5871 16.6667 16.6666C16.6667 15.7461 17.4129 14.9999 18.3334 14.9999H20.8334C21.7538 14.9999 22.5 15.7461 22.5 16.6666H25.8334C25.8334 14.1891 24.0315 12.1324 21.6667 11.7357Z" fill="currentcolor"/>
  </symbol>

  <symbol id="sliderArrow" viewBox="0 0 24 25">
    <path id="Union" fill-rule="evenodd" clip-rule="evenodd" d="M17.4286 3.82603L16 2.39746L6 12.3975L7.42857 13.826L7.42859 13.826L16.0001 22.3976L17.4287 20.969L8.85716 12.3974L17.4286 3.82603Z" fill="currentcolor"/>
  </symbol>

  <symbol id="topArrow" viewBox="0 0 24 24">
    <path fill-rule="evenodd" clip-rule="evenodd" d="M3.42857 17.4276L2 15.999L12 5.99902L13.4286 7.42759L22.0001 15.9992L20.5715 17.4277L12 8.85618L3.42857 17.4276Z" fill="currentcolor"/>
  </symbol>

  <symbol id="arrowDown" viewBox="0 0 24 24">
    <path fill-rule="evenodd" clip-rule="evenodd" d="M20.5714 6.57143L22 8L12 18L10.5714 16.5714L1.9999 7.99986L3.42847 6.57129L12 15.1428L20.5714 6.57143Z" fill="currentColor"/>
  </symbol>

</svg>